<svg width="147" height="164" viewBox="0 0 147 164" fill="none" xmlns="http://www.w3.org/2000/svg">
<path d="M24.5223 135.697C33.0246 135.697 41.3658 134.377 49.4143 131.864C59.0743 128.847 68.5307 125.196 78.1059 121.904C85.9424 119.209 93.8256 116.645 101.671 113.971C102.366 113.734 103.049 113.218 103.541 112.659C112.492 102.382 123.959 96.8692 137.27 94.796C137.512 94.7579 137.758 94.7579 137.999 94.7621C138.114 94.7621 138.228 94.8213 138.631 94.9398C138.127 97.8719 137.711 100.859 137.02 103.783C136.897 104.307 135.667 104.773 134.883 104.912C129.425 105.898 124.447 108.026 120.092 111.394C118.349 112.744 116.453 113.425 114.49 114.229C106.246 117.61 98.028 121.054 89.8988 124.688C78.6402 129.727 67.513 135.054 56.2459 140.072C50.3727 142.687 44.173 144.375 37.8249 145.479C36.4171 145.725 35.2891 145.611 34.1314 144.604C30.8789 141.773 27.5161 139.078 24.1958 136.328C24.3061 136.116 24.4121 135.909 24.5223 135.697Z" fill="#137C40"/>
<path d="M47.7198 151.285C52.1384 149.271 56.6165 147.376 60.963 145.218C70.6866 140.386 80.2999 135.317 90.0489 130.532C102.211 124.562 114.572 119.032 127.667 115.334C129.66 114.772 131.695 114.344 133.714 113.862C133.816 113.837 133.939 113.9 134.617 114.035C132.611 117.852 130.69 121.533 128.727 125.188C128.583 125.459 128.163 125.671 127.836 125.738C112.689 128.844 99.0007 135.525 85.52 142.764C77.9379 146.834 70.2413 150.685 62.5787 154.607C62.0062 154.899 61.2514 155.22 60.6831 155.085C56.3111 154.057 51.9688 152.919 47.6138 151.814C47.6519 151.637 47.6901 151.463 47.7283 151.285H47.7198Z" fill="#137C40"/>
<path d="M12.7725 119.002C19.0018 119.002 24.6206 119.125 30.2308 118.976C41.2986 118.68 52.0018 116.252 62.5777 113.172C70.2912 110.925 78.0048 108.691 85.7523 106.44C84.1112 109.317 82.5507 112.105 80.9223 114.851C80.6679 115.279 80.1632 115.681 79.6925 115.837C68.1455 119.594 56.853 124.164 44.937 126.77C36.9563 128.513 28.9077 129.364 20.7362 129.063C19.4344 129.017 18.565 128.602 17.9078 127.481C16.3133 124.765 14.651 122.095 12.7725 119.006V119.002Z" fill="#137C40"/>
<path d="M49.3821 31.7935C50.0225 34.1544 50.5907 36.253 51.1547 38.3346C30.0495 47.4525 16.5306 69.0773 15.5511 92.0687C13.2781 92.4749 10.9628 92.8895 8.33789 93.3634C8.85524 81.3811 11.6794 70.1393 17.6289 59.8663C25.0244 47.0971 35.5071 37.6196 49.3821 31.7977V31.7935Z" fill="#137C40"/>
<path d="M138.474 78.2907C135.968 78.7012 133.572 79.0904 131.184 79.4797C127.648 56.3613 114.125 42.0012 92.0654 34.5927C92.1587 33.8184 92.3071 32.6929 92.4344 31.5632C92.5573 30.4801 92.6591 29.3969 92.7694 28.3096C111.491 31.5632 134.81 50.3321 138.474 78.2865V78.2907Z" fill="#137C40"/>
<path d="M138.874 82.6235C138.874 84.7094 138.832 86.533 138.891 88.3523C138.925 89.427 138.531 89.8163 137.449 89.9601C127.527 91.2718 118.384 94.8004 110.119 100.347C106.701 102.641 103.822 105.729 100.65 108.399C99.891 109.038 99.0047 109.639 98.0718 109.939C94.5988 111.069 91.0791 112.063 87.3008 113.193C89.209 109.588 91.4989 106.52 94.3274 103.872C105.773 93.1757 119.232 86.4272 134.608 83.4359C135.919 83.182 137.237 82.9366 138.874 82.6278V82.6235Z" fill="#137C40"/>
<path d="M71.3643 35.7844C70.6816 35.2047 69.9268 34.5066 69.1168 33.8804C63.4048 29.4886 61.9885 25.0714 64.1511 18.1494C65.3343 14.3627 67.5266 11.1725 70.2618 8.0542C74.4048 11.9171 77.5428 16.2116 78.4375 21.822C79.4298 28.0458 75.3292 31.8664 71.3643 35.7844Z" fill="#137C40"/>
<path d="M72.4567 101.46C70.3704 100.453 68.4239 99.3235 66.3503 98.5492C58.3399 95.5494 54.6718 89.4102 53.582 81.3416C53.3615 79.7211 53.2682 78.0837 53.1113 76.4082C67.8769 79.6999 73.6907 85.4668 72.4567 101.46Z" fill="#137C40"/>
<path d="M73.9048 102.126C74.1211 98.195 74.032 94.2221 74.6172 90.3465C75.7537 82.811 80.6769 78.2415 87.4364 75.3686C89.1071 74.6578 90.7991 74.002 92.5165 73.3081C92.877 77.7507 92.33 82.1002 90.6592 86.2889C89.4125 89.4072 87.2074 91.7469 84.4298 93.5282C80.6557 95.9484 77.0555 98.5377 74.4603 102.303C74.278 102.244 74.0914 102.185 73.909 102.126H73.9048Z" fill="#137C40"/>
<path d="M76.4712 155.945C91.2792 146.502 106.32 137.629 123.774 132.861C110.9 147.047 95.2059 154.642 76.4712 155.945Z" fill="#137C40"/>
<path d="M52.0201 69.9612C50.273 73.0329 51.1762 76.3204 50.8285 79.4387C39.0313 76.5658 32.2125 68.4295 34.002 59.2397C41.4865 60.4667 48.5004 62.4172 52.0201 69.9612Z" fill="#137C40"/>
<path d="M111.073 52.645C111.302 59.6601 109.979 65.4989 104.504 69.6241C103.105 70.6777 101.413 71.3335 99.9202 72.277C98.2112 73.3559 96.5786 74.5491 94.9927 75.6364C94.7891 73.9567 94.8273 71.8327 94.2294 69.9076C93.4661 67.4579 93.5975 65.3339 94.8654 63.121C96.4853 60.2905 98.5547 57.8873 101.493 56.491C104.5 55.0652 107.672 53.9905 111.073 52.645Z" fill="#137C40"/>
<path d="M54.0249 62.3172C56.0222 62.7784 57.9177 63.2142 59.8132 63.65C68.6209 65.6724 73.2261 72.2686 72.1024 81.4965C70.5588 78.429 67.6837 77.5235 64.8977 76.4954C58.9355 74.2995 54.5974 68.6722 54.0249 62.313V62.3172Z" fill="#137C40"/>
<path d="M90.5895 59.8765C89.6439 65.9903 87.5321 71.186 81.7819 74.3254C78.6439 76.039 75.455 77.8372 73.9708 81.4886C73.4662 76.2971 73.92 71.3468 77.0664 66.9465C80.3274 62.3855 85.5136 61.4589 90.5895 59.8765Z" fill="#137C40"/>
<path d="M53.9194 47.2095C56.5443 47.823 58.9657 48.3349 61.3531 48.9654C67.239 50.5181 70.5551 54.3938 71.4456 60.3511C71.6788 61.9081 71.734 63.4947 71.84 64.6752C69.1812 63.4439 66.4757 62.0435 63.6642 60.918C57.4773 58.4386 55.2891 53.2556 53.9194 47.2095Z" fill="#137C40"/>
<path d="M73.3668 65.6883C72.3915 53.5029 77.0943 47.5371 89.9134 44.9478C89.7481 45.9505 89.6548 46.8771 89.4427 47.7741C88.2257 52.919 85.7747 57.15 80.7284 59.4813C77.7855 60.8395 75.0503 62.4896 73.3668 65.6883Z" fill="#137C40"/>
<path d="M53.6411 31.8828C56.0158 32.454 58.0216 32.911 60.0189 33.4187C66.948 35.1703 70.4634 39.2998 71.1037 46.3995C71.1927 47.3684 71.286 48.3373 71.3454 48.9762C68.5212 47.783 65.574 46.5095 62.6014 45.2825C58.6662 43.6578 56.6519 40.3703 55.1508 36.6808C54.5401 35.1788 54.1669 33.5837 53.6411 31.8828Z" fill="#137C40"/>
<path d="M33.9535 80.3181C47.1246 80.3011 49.3212 81.435 53.0402 94.0477C49.1431 93.0831 45.3436 92.3257 41.667 91.1791C38.9615 90.3329 37.4349 87.9635 36.1967 85.5561C35.3444 83.8975 34.7168 82.1247 33.9492 80.3181H33.9535Z" fill="#137C40"/>
<path d="M88.3128 29.2891C87.8845 31.5992 87.6174 33.719 87.0831 35.7668C86.0144 39.8666 83.2326 42.5703 79.5858 44.5292C76.9609 45.9424 74.2936 47.3259 72.8221 50.1777C71.9104 42.9088 74.319 35.2929 81.3965 32.3819C83.6355 31.4596 85.8236 30.4061 88.3086 29.2891H88.3128Z" fill="#137C40"/>
<path d="M95.5977 86.128C96.5984 76.5659 102.989 73.4645 111.924 72.5972C111.042 75.0469 110.189 77.4375 109.312 79.8195C108.748 81.3469 107.658 82.227 106.068 82.7093C102.582 83.7629 99.1343 84.9645 95.5977 86.1322V86.128Z" fill="#137C40"/>
<path d="M112.982 85.7034C106.778 88.644 100.659 91.8808 95.7696 96.6745C91.3425 101.02 85.6219 101.189 80.334 102.89C89.3494 93.6197 100.214 87.8613 112.982 85.6992V85.7034Z" fill="#137C40"/>
<path d="M20.1963 82.6891C28.7283 82.5749 32.7441 85.1812 33.7957 91.5066C31.0309 91.3162 28.2745 91.3966 25.6539 90.8296C24.369 90.5504 23.0247 89.2684 22.2869 88.0837C21.3158 86.5267 20.9087 84.6143 20.1963 82.6891Z" fill="#137C40"/>
<path d="M125.852 70.6934C125.161 77.6915 122.413 79.972 114.178 80.3824C114.551 74.3744 117.846 71.6411 125.852 70.6934Z" fill="#137C40"/>
<path d="M8.0708 97.772C8.99524 102.688 9.86031 107.453 10.8399 112.196C10.9289 112.619 11.7389 113.173 12.2308 113.194C25.6309 113.748 38.9844 113.465 52.1131 110.309C58.0881 108.87 64.0291 107.296 70.3899 105.68C50.4763 95.3138 29.8884 93.9133 8.0708 97.772Z" fill="#137C40"/>
</svg>
