<svg width="279" height="83" viewBox="0 0 279 83" fill="none" xmlns="http://www.w3.org/2000/svg">
<path d="M122.602 36.7844H134.78V43.4198H122.602V36.7844ZM123.226 47.0106H136.887V53.9582H114.171V26.6362H136.38V33.5838H123.226V47.0106Z" fill="#137C40"/>
<path d="M139.463 53.9582V48.2987L154.685 30.5784L155.817 33.779H139.853V26.6362H163.936V32.2958L148.713 50.0161L147.581 46.8155H164.56V53.9582H139.463Z" fill="#137C40"/>
<path d="M175.996 53.9582L187.94 26.6362H196.995L208.939 53.9582H199.415L190.594 31.0078H194.185L185.364 53.9582H175.996ZM183.1 49.1964L185.442 42.5611H198.01L200.352 49.1964H183.1Z" fill="#137C40"/>
<path d="M220.804 61.9212C218.696 61.9212 216.719 61.7 214.871 61.2577C213.024 60.8153 211.436 60.1518 210.109 59.2671L213.076 53.2562C213.908 53.9067 214.962 54.4141 216.237 54.7784C217.538 55.1688 218.761 55.3639 219.906 55.3639C221.728 55.3639 223.029 54.9736 223.809 54.193C224.59 53.4384 224.98 52.3455 224.98 50.9143V49.1189L225.371 42.4835L225.41 35.8482V32.6086H233.801V49.7043C233.801 53.8417 232.656 56.9122 230.367 58.9158C228.077 60.9194 224.889 61.9212 220.804 61.9212ZM219.087 52.7878C217.291 52.7878 215.613 52.3715 214.052 51.5388C212.49 50.6801 211.228 49.4832 210.265 47.9479C209.303 46.4127 208.821 44.5912 208.821 42.4835C208.821 40.3758 209.303 38.5544 210.265 37.0191C211.228 35.4839 212.49 34.2999 214.052 33.4673C215.613 32.6346 217.291 32.2183 219.087 32.2183C220.934 32.2183 222.443 32.5826 223.614 33.3111C224.811 34.0397 225.696 35.1716 226.268 36.7069C226.841 38.2161 227.127 40.1416 227.127 42.4835C227.127 44.8254 226.841 46.764 226.268 48.2992C225.696 49.8084 224.811 50.9403 223.614 51.695C222.443 52.4235 220.934 52.7878 219.087 52.7878ZM221.428 45.9183C222.131 45.9183 222.756 45.7752 223.302 45.489C223.848 45.2027 224.278 44.7994 224.59 44.279C224.902 43.7586 225.058 43.1601 225.058 42.4835C225.058 41.781 224.902 41.1825 224.59 40.6881C224.278 40.1677 223.848 39.7774 223.302 39.5171C222.756 39.2309 222.131 39.0878 221.428 39.0878C220.752 39.0878 220.127 39.2309 219.555 39.5171C219.008 39.7774 218.566 40.1677 218.228 40.6881C217.916 41.1825 217.759 41.781 217.759 42.4835C217.759 43.1601 217.916 43.7586 218.228 44.279C218.566 44.7994 219.008 45.2027 219.555 45.489C220.127 45.7752 220.752 45.9183 221.428 45.9183Z" fill="#137C40"/>
<path d="M237.705 53.9588V32.6086H246.096V39.0488L244.73 37.2143C245.381 35.5489 246.422 34.2999 247.853 33.4673C249.284 32.6346 251.001 32.2183 253.005 32.2183V40.0246C252.615 39.9725 252.263 39.9335 251.951 39.9075C251.665 39.8814 251.366 39.8684 251.053 39.8684C249.726 39.8684 248.633 40.2197 247.775 40.9223C246.942 41.5988 246.526 42.7828 246.526 44.4741V53.9588H237.705Z" fill="#137C40"/>
<path d="M266.588 54.3491C264.168 54.3491 262.022 53.8807 260.148 52.944C258.301 51.9812 256.843 50.6671 255.777 49.0018C254.71 47.3364 254.176 45.4239 254.176 43.2642C254.176 41.1044 254.71 39.1919 255.777 37.5265C256.843 35.8612 258.301 34.5601 260.148 33.6234C262.022 32.6866 264.168 32.2183 266.588 32.2183C269.008 32.2183 271.155 32.6866 273.028 33.6234C274.902 34.5601 276.359 35.8612 277.4 37.5265C278.467 39.1919 279 41.1044 279 43.2642C279 45.4239 278.467 47.3364 277.4 49.0018C276.359 50.6671 274.902 51.9812 273.028 52.944C271.155 53.8807 269.008 54.3491 266.588 54.3491ZM266.588 47.4796C267.239 47.4796 267.824 47.3234 268.345 47.0112C268.865 46.6989 269.281 46.2306 269.594 45.606C269.906 44.9555 270.062 44.1749 270.062 43.2642C270.062 42.3274 269.906 41.5598 269.594 40.9613C269.281 40.3368 268.865 39.8684 268.345 39.5562C267.824 39.2439 267.239 39.0878 266.588 39.0878C265.938 39.0878 265.352 39.2439 264.832 39.5562C264.311 39.8684 263.895 40.3368 263.583 40.9613C263.271 41.5598 263.114 42.3274 263.114 43.2642C263.114 44.1749 263.271 44.9555 263.583 45.606C263.895 46.2306 264.311 46.6989 264.832 47.0112C265.352 47.3234 265.938 47.4796 266.588 47.4796Z" fill="#137C40"/>
<path d="M92.4399 19.6431H94.0663V63.7486H92.4399V19.6431Z" fill="#137C40"/>
<path d="M9.15684 71.2074C13.8893 71.2074 18.5321 70.471 23.012 69.0689C28.3888 67.386 33.6524 65.349 38.982 63.5127C43.3439 62.0092 47.7318 60.5788 52.0984 59.0871C52.4855 58.9549 52.8655 58.6669 53.1393 58.3554C58.122 52.6221 64.5043 49.5466 71.9134 48.39C72.0479 48.3688 72.1848 48.3688 72.3194 48.3711C72.3831 48.3711 72.4468 48.4042 72.6711 48.4703C72.3902 50.106 72.1589 51.7724 71.7742 53.4034C71.7057 53.6961 71.0212 53.9557 70.5845 54.0336C67.5468 54.5836 64.7758 55.7708 62.3517 57.6496C61.3816 58.4026 60.3265 58.7826 59.2337 59.231C54.6452 61.117 50.0709 63.0383 45.5461 65.0658C39.2794 67.877 33.0859 70.8486 26.8145 73.648C23.5454 75.1067 20.0946 76.0484 16.5612 76.6645C15.7776 76.8014 15.1497 76.7376 14.5054 76.1759C12.695 74.5968 10.8232 73.0933 8.9751 71.5591C9.03647 71.4411 9.09547 71.3254 9.15684 71.2074Z" fill="#137C40"/>
<path d="M22.0688 79.9032C24.5282 78.7797 27.0208 77.7222 29.4401 76.5185C34.8523 73.823 40.2032 70.9953 45.6296 68.3257C52.3991 64.9953 59.2795 61.9103 66.5682 59.8474C67.6775 59.5335 68.8105 59.2951 69.934 59.026C69.9907 59.0118 70.0591 59.0473 70.4368 59.1228C69.3203 61.2518 68.2511 63.3053 67.1582 65.3446C67.078 65.4957 66.8443 65.6137 66.6626 65.6515C58.2315 67.384 50.6123 71.1109 43.1088 75.1495C38.8885 77.4201 34.6045 79.568 30.3394 81.756C30.0207 81.9189 29.6006 82.0983 29.2843 82.0228C26.8508 81.4492 24.4338 80.8143 22.0098 80.1982C22.031 80.0991 22.0523 80.0023 22.0735 79.9032H22.0688Z" fill="#137C40"/>
<path d="M2.61719 61.8931C6.08452 61.8931 9.21196 61.9615 12.3347 61.8789C18.4952 61.7137 24.4526 60.3589 30.3393 58.6405C34.6328 57.3872 38.9262 56.141 43.2385 54.8853C42.3251 56.4903 41.4565 58.0457 40.5501 59.5776C40.4085 59.816 40.1276 60.0402 39.8656 60.1276C33.4384 62.2235 27.1529 64.7727 20.5203 66.2267C16.0782 67.1991 11.5983 67.6735 7.0499 67.506C6.32527 67.48 5.8414 67.2487 5.47555 66.6232C4.58807 65.1079 3.66282 63.6185 2.61719 61.8955V61.8931Z" fill="#137C40"/>
<path d="M22.9946 13.2432C23.351 14.5602 23.6673 15.731 23.9812 16.8922C12.2338 21.9788 4.70909 34.0424 4.16385 46.8685C2.89872 47.0951 1.60997 47.3264 0.148926 47.5907C0.436887 40.9063 2.00887 34.6349 5.32042 28.904C9.43684 21.7805 15.2716 16.4933 22.9946 13.2455V13.2432Z" fill="#137C40"/>
<path d="M72.5839 39.1819C71.189 39.4109 69.8554 39.6281 68.5265 39.8452C66.558 26.9483 59.0309 18.9374 46.7524 14.8044C46.8044 14.3725 46.887 13.7446 46.9578 13.1144C47.0262 12.5102 47.0829 11.9059 47.1443 11.2993C57.5651 13.1144 70.5446 23.5849 72.5839 39.1796V39.1819Z" fill="#137C40"/>
<path d="M72.8065 41.5991C72.8065 42.7628 72.7829 43.7801 72.8159 44.795C72.8348 45.3945 72.6153 45.6117 72.0134 45.6919C66.4902 46.4236 61.4014 48.3922 56.8011 51.4866C54.8986 52.7659 53.296 54.4889 51.5304 55.9783C51.1079 56.3347 50.6146 56.6699 50.0953 56.8374C48.1622 57.4676 46.2032 58.0223 44.1001 58.6525C45.1622 56.6415 46.4368 54.9303 48.0112 53.4527C54.3817 47.4858 61.8734 43.7211 70.432 42.0523C71.1613 41.9107 71.8954 41.7738 72.8065 41.6015V41.5991Z" fill="#137C40"/>
<path d="M35.2296 15.4696C34.8496 15.1463 34.4295 14.7568 33.9787 14.4075C30.7993 11.9575 30.0109 9.49326 31.2147 5.63176C31.8732 3.51926 33.0935 1.73957 34.6159 0C36.922 2.15499 38.6686 4.55072 39.1667 7.68053C39.719 11.1526 37.4365 13.284 35.2296 15.4696Z" fill="#137C40"/>
<path d="M35.8382 52.1079C34.6769 51.5461 33.5935 50.9159 32.4393 50.484C27.9806 48.8105 25.9389 45.3856 25.3323 40.8845C25.2096 39.9805 25.1576 39.067 25.0703 38.1323C33.289 39.9687 36.525 43.1858 35.8382 52.1079Z" fill="#137C40"/>
<path d="M36.6436 52.4791C36.7639 50.2863 36.7144 48.07 37.0401 45.9079C37.6727 41.7041 40.413 39.155 44.1754 37.5523C45.1054 37.1558 46.0471 36.7899 47.0031 36.4028C47.2037 38.8812 46.8992 41.3076 45.9692 43.6443C45.2753 45.3839 44.0479 46.6892 42.5019 47.6829C40.4012 49.033 38.3973 50.4775 36.9528 52.5782C36.8513 52.5452 36.7474 52.5121 36.6459 52.4791H36.6436Z" fill="#137C40"/>
<path d="M38.0728 82.5025C46.315 77.2342 54.6871 72.2846 64.4023 69.6245C57.2363 77.5387 48.5007 81.7755 38.0728 82.5025Z" fill="#137C40"/>
<path d="M24.4626 34.5358C23.4901 36.2494 23.9929 38.0834 23.7993 39.8229C17.2329 38.2203 13.4375 33.6813 14.4335 28.5547C18.5995 29.2392 22.5035 30.3273 24.4626 34.5358Z" fill="#137C40"/>
<path d="M57.3323 24.8755C57.4597 28.7889 56.7233 32.0462 53.6761 34.3475C52.8972 34.9352 51.9554 35.3011 51.1246 35.8274C50.1734 36.4293 49.2647 37.0949 48.3819 37.7015C48.2686 36.7645 48.2898 35.5796 47.957 34.5057C47.5322 33.139 47.6053 31.9541 48.3111 30.7197C49.2127 29.1406 50.3646 27.7999 52.0003 27.021C53.6738 26.2256 55.4393 25.6261 57.3323 24.8755Z" fill="#137C40"/>
<path d="M25.5781 30.2709C26.6898 30.5282 27.7449 30.7713 28.8 31.0144C33.7024 32.1427 36.2657 35.8224 35.6402 40.9703C34.7811 39.2591 33.1808 38.754 31.63 38.1804C28.3114 36.9554 25.8968 33.8161 25.5781 30.2686V30.2709Z" fill="#137C40"/>
<path d="M45.9308 28.9097C45.4045 32.3204 44.229 35.2188 41.0284 36.9702C39.2817 37.9261 37.5068 38.9293 36.6807 40.9663C36.3998 38.0701 36.6523 35.3085 38.4037 32.8538C40.2188 30.3093 43.1055 29.7924 45.9308 28.9097Z" fill="#137C40"/>
<path d="M25.52 21.8423C26.9811 22.1845 28.3288 22.4701 29.6577 22.8218C32.9338 23.6881 34.7796 25.8501 35.2753 29.1735C35.4051 30.0421 35.4358 30.9272 35.4948 31.5857C34.0149 30.8989 32.509 30.1176 30.9441 29.4898C27.5003 28.1066 26.2824 25.2152 25.52 21.8423Z" fill="#137C40"/>
<path d="M36.3445 32.1514C35.8016 25.3537 38.4192 22.0256 45.5545 20.5811C45.4625 21.1405 45.4105 21.6574 45.2925 22.1578C44.6151 25.0279 43.2508 27.3883 40.442 28.6888C38.804 29.4465 37.2815 30.367 36.3445 32.1514Z" fill="#137C40"/>
<path d="M25.3647 13.2925C26.6865 13.6111 27.803 13.866 28.9147 14.1493C32.7715 15.1265 34.7282 17.4301 35.0846 21.3908C35.1342 21.9313 35.1861 22.4718 35.2191 22.8282C33.6472 22.1626 32.0067 21.4522 30.3521 20.7677C28.1617 19.8613 27.0406 18.0273 26.205 15.9691C25.8651 15.1312 25.6574 14.2413 25.3647 13.2925Z" fill="#137C40"/>
<path d="M14.4062 40.3131C21.7374 40.3036 22.96 40.9362 25.03 47.9724C22.8609 47.4342 20.746 47.0117 18.6996 46.3721C17.1937 45.9 16.344 44.5782 15.6548 43.2352C15.1804 42.3099 14.831 41.321 14.4038 40.3131H14.4062Z" fill="#137C40"/>
<path d="M44.6634 11.8457C44.425 13.1344 44.2763 14.317 43.9789 15.4594C43.3841 17.7465 41.8357 19.2548 39.8059 20.3476C38.3448 21.136 36.8602 21.9078 36.0411 23.4987C35.5336 19.4436 36.8743 15.195 40.8137 13.5711C42.06 13.0566 43.2779 12.4688 44.6611 11.8457H44.6634Z" fill="#137C40"/>
<path d="M48.7188 43.5542C49.2758 38.2199 52.8328 36.4897 57.806 36.0059C57.3151 37.3725 56.8407 38.7061 56.3521 40.035C56.0382 40.887 55.4315 41.378 54.5464 41.6471C52.6062 42.2348 50.6873 42.9051 48.7188 43.5566V43.5542Z" fill="#137C40"/>
<path d="M58.3944 43.3173C54.9412 44.9577 51.5353 46.7634 48.8138 49.4377C46.3496 51.8617 43.1655 51.9561 40.2222 52.905C45.2402 47.7335 51.2874 44.5211 58.3944 43.3149V43.3173Z" fill="#137C40"/>
<path d="M6.74902 41.6363C11.498 41.5726 13.7333 43.0265 14.3186 46.5552C12.7797 46.449 11.2455 46.4938 9.78677 46.1776C9.07159 46.0218 8.32337 45.3066 7.91267 44.6457C7.37215 43.7771 7.14556 42.7102 6.74902 41.6363Z" fill="#137C40"/>
<path d="M65.5585 34.9438C65.1738 38.8478 63.6443 40.1201 59.0605 40.349C59.2683 36.9973 61.1022 35.4726 65.5585 34.9438Z" fill="#137C40"/>
<path d="M0 50.0505C0.514553 52.7932 0.996061 55.4509 1.5413 58.0968C1.59087 58.3329 2.04169 58.6421 2.31549 58.6539C9.77415 58.9631 17.2068 58.8049 24.5144 57.0441C27.8401 56.2416 31.147 55.3636 34.6875 54.4619C23.6033 48.6791 12.1439 47.8978 0 50.0505Z" fill="#137C40"/>
</svg>
