<svg width="22" height="27" viewBox="0 0 22 27" fill="none" xmlns="http://www.w3.org/2000/svg">
<path d="M4.8125 27C3.48333 27 2.34896 26.5388 1.40938 25.6163C0.469792 24.6938 0 23.58 0 22.275V4.725C0 3.42 0.469792 2.30625 1.40938 1.38375C2.34896 0.46125 3.48333 0 4.8125 0H22V20.25C21.4271 20.25 20.9401 20.4469 20.5391 20.8406C20.138 21.2344 19.9375 21.7125 19.9375 22.275C19.9375 22.8375 20.138 23.3156 20.5391 23.7094C20.9401 24.1031 21.4271 24.3 22 24.3V27H4.8125ZM2.75 17.9888C3.07083 17.8313 3.40313 17.7188 3.74688 17.6513C4.09063 17.5837 4.44583 17.55 4.8125 17.55H5.5V2.7H4.8125C4.23958 2.7 3.7526 2.89688 3.35156 3.29063C2.95052 3.68438 2.75 4.1625 2.75 4.725V17.9888ZM8.25 17.55H19.25V2.7H8.25V17.55ZM4.8125 24.3H17.6344C17.4969 23.985 17.388 23.6644 17.3078 23.3381C17.2276 23.0119 17.1875 22.6575 17.1875 22.275C17.1875 21.915 17.2219 21.5663 17.2906 21.2288C17.3594 20.8913 17.474 20.565 17.6344 20.25H4.8125C4.21667 20.25 3.72396 20.4469 3.33438 20.8406C2.94479 21.2344 2.75 21.7125 2.75 22.275C2.75 22.86 2.94479 23.3438 3.33438 23.7263C3.72396 24.1088 4.21667 24.3 4.8125 24.3Z" fill="#FDFDFD"/>
</svg>
