<svg width="27" height="27" viewBox="0 0 27 27" fill="none" xmlns="http://www.w3.org/2000/svg">
<path d="M8.10749 27C7.3643 27 6.72809 26.7356 6.19885 26.2069C5.66961 25.6781 5.40499 25.0425 5.40499 24.3C5.40499 23.5575 5.66961 22.9219 6.19885 22.3931C6.72809 21.8644 7.3643 21.6 8.10749 21.6C8.85068 21.6 9.48689 21.8644 10.0161 22.3931C10.5454 22.9219 10.81 23.5575 10.81 24.3C10.81 25.0425 10.5454 25.6781 10.0161 26.2069C9.48689 26.7356 8.85068 27 8.10749 27ZM21.62 27C20.8768 27 20.2406 26.7356 19.7113 26.2069C19.1821 25.6781 18.9175 25.0425 18.9175 24.3C18.9175 23.5575 19.1821 22.9219 19.7113 22.3931C20.2406 21.8644 20.8768 21.6 21.62 21.6C22.3632 21.6 22.9994 21.8644 23.5286 22.3931C24.0579 22.9219 24.3225 23.5575 24.3225 24.3C24.3225 25.0425 24.0579 25.6781 23.5286 26.2069C22.9994 26.7356 22.3632 27 21.62 27ZM6.95893 5.4L10.2019 12.15H19.6607L23.3766 5.4H6.95893ZM5.67524 2.7H25.6062C26.1241 2.7 26.5183 2.93063 26.7885 3.39188C27.0588 3.85313 27.07 4.32 26.8223 4.7925L22.0254 13.4325C21.7776 13.8825 21.4454 14.2313 21.0288 14.4788C20.6122 14.7263 20.1561 14.85 19.6607 14.85H9.59386L8.10749 17.55H24.3225V20.25H8.10749C7.09405 20.25 6.32835 19.8056 5.81037 18.9169C5.29239 18.0281 5.26987 17.145 5.74281 16.2675L7.56699 12.96L2.7025 2.7H0V0H4.39156L5.67524 2.7Z" fill="#E8EAED"/>
</svg>
