<svg width="28" height="29" viewBox="0 0 28 29" fill="none" xmlns="http://www.w3.org/2000/svg">
<path d="M2.8 2.7619V11.0821V11.0476V24.8571V2.7619ZM5.6 16.5714H10.5C10.71 16.0421 10.9667 15.5472 11.27 15.0869C11.5733 14.6266 11.9233 14.2008 12.32 13.8095H5.6V16.5714ZM5.6 22.0952H10.045C9.92833 21.6349 9.8525 21.1746 9.8175 20.7143C9.7825 20.254 9.78833 19.7937 9.835 19.3333H5.6V22.0952ZM2.8 27.619C2.03 27.619 1.37083 27.3486 0.8225 26.8077C0.274167 26.2669 0 25.6167 0 24.8571V2.7619C0 2.00238 0.274167 1.35218 0.8225 0.81131C1.37083 0.270436 2.03 0 2.8 0H14L22.4 8.28572V11.7381C21.9567 11.554 21.5017 11.4101 21.035 11.3065C20.5683 11.203 20.09 11.1282 19.6 11.0821V9.66667H12.6V2.7619H2.8V24.8571H11.235C11.6083 25.4095 12.0283 25.9216 12.495 26.3935C12.9617 26.8653 13.475 27.2738 14.035 27.619H2.8ZM18.9 23.4762C19.88 23.4762 20.7083 23.1425 21.385 22.475C22.0617 21.8075 22.4 20.9905 22.4 20.0238C22.4 19.0571 22.0617 18.2401 21.385 17.5726C20.7083 16.9052 19.88 16.5714 18.9 16.5714C17.92 16.5714 17.0917 16.9052 16.415 17.5726C15.7383 18.2401 15.4 19.0571 15.4 20.0238C15.4 20.9905 15.7383 21.8075 16.415 22.475C17.0917 23.1425 17.92 23.4762 18.9 23.4762ZM26.04 29L22.26 25.2714C21.77 25.5937 21.2392 25.8353 20.6675 25.9964C20.0958 26.1575 19.5067 26.2381 18.9 26.2381C17.15 26.2381 15.6625 25.6339 14.4375 24.4256C13.2125 23.2173 12.6 21.75 12.6 20.0238C12.6 18.2976 13.2125 16.8304 14.4375 15.622C15.6625 14.4137 17.15 13.8095 18.9 13.8095C20.65 13.8095 22.1375 14.4137 23.3625 15.622C24.5875 16.8304 25.2 18.2976 25.2 20.0238C25.2 20.6222 25.1183 21.2034 24.955 21.7673C24.7917 22.3312 24.5467 22.8548 24.22 23.3381L28 27.0667L26.04 29Z" fill="#E8EAED"/>
</svg>
