<svg width="43" height="37" viewBox="0 0 43 37" fill="none" xmlns="http://www.w3.org/2000/svg">
<path d="M0 37L21.5 0L43 37H0ZM6.74318 33.1053H36.2568L21.5 7.78947L6.74318 33.1053ZM21.5 31.1579C22.0538 31.1579 22.518 30.9713 22.8926 30.598C23.2672 30.2248 23.4545 29.7623 23.4545 29.2105C23.4545 28.6588 23.2672 28.1963 22.8926 27.823C22.518 27.4498 22.0538 27.2632 21.5 27.2632C20.9462 27.2632 20.482 27.4498 20.1074 27.823C19.7328 28.1963 19.5455 28.6588 19.5455 29.2105C19.5455 29.7623 19.7328 30.2248 20.1074 30.598C20.482 30.9713 20.9462 31.1579 21.5 31.1579ZM19.5455 25.3158H23.4545V15.5789H19.5455V25.3158Z" fill="#1C1C1C"/>
</svg>
